<?xml version="1.0" standalone="no"?>
<!DOCTYPE svg PUBLIC "-//W3C//DTD SVG 20010904//EN"
 "http://www.w3.org/TR/2001/REC-SVG-20010904/DTD/svg10.dtd">
<svg version="1.0" xmlns="http://www.w3.org/2000/svg"
 width="1280.000000pt" height="674.000000pt" viewBox="0 0 1280.000000 674.000000"
 preserveAspectRatio="xMidYMid meet">
<g transform="translate(0.000000,674.000000) scale(0.100000,-0.100000)"
fill="#000000" stroke="none">
<path d="M2520 6729 c-30 -5 -111 -15 -180 -24 -450 -55 -918 -250 -1288 -537
-126 -98 -350 -318 -446 -438 -299 -374 -508 -860 -570 -1325 -42 -312 -44
-402 -12 -655 27 -211 62 -367 128 -567 223 -677 701 -1232 1338 -1555 538
-273 1191 -357 1798 -232 722 149 1358 596 1742 1227 36 58 72 106 80 107 8 0
206 -54 440 -121 331 -95 429 -127 445 -144 11 -12 58 -36 105 -54 74 -27 86
-29 96 -16 6 8 17 15 24 15 29 0 377 -194 410 -229 32 -34 90 -57 720 -289
377 -138 1680 -619 2895 -1068 1216 -448 2219 -818 2231 -821 14 -3 31 5 55
29 30 28 49 73 134 303 54 149 107 289 118 313 16 36 17 47 7 71 -6 16 -19 36
-29 45 -13 12 -5648 2095 -5802 2145 -24 8 -44 8 -61 2 -19 -7 -79 2 -244 37
-215 46 -219 48 -222 73 -3 24 -13 30 -88 58 -54 19 -95 29 -110 25 -18 -5
-127 40 -427 177 -221 100 -408 188 -416 195 -12 11 -11 27 3 114 67 400 37
851 -84 1245 -92 304 -277 649 -480 900 -91 114 -299 319 -410 407 -384 304
-813 491 -1280 558 -80 11 -175 25 -213 30 -79 12 -327 11 -407 -1z m400 -310
c692 -66 1351 -469 1742 -1065 224 -342 344 -691 385 -1124 14 -150 15 -198 4
-335 -27 -360 -95 -615 -245 -922 -400 -816 -1231 -1335 -2136 -1335 -1088 -1
-2085 833 -2289 1913 -40 211 -46 274 -46 494 1 193 4 240 28 377 86 499 289
911 629 1272 374 398 928 677 1441 726 201 19 275 19 487 -1z"/>
</g>
</svg>
